<svg width="31" height="16" viewBox="0 0 31 16" fill="none" xmlns="http://www.w3.org/2000/svg">
  <path d="M28.9472 0.061061C28.7313 0.125516 28.5332 0.239029 28.3684 0.392729L15.4489 12.128L2.52947 0.392729C2.36467 0.239029 2.16657 0.125516 1.95063 0.061061C1.7347 -0.00339398 1.50679 -0.0170449 1.28471 0.0211741C1.06262 0.059393 0.852385 0.148447 0.670421 0.281377C0.488456 0.414307 0.339694 0.587512 0.235759 0.78746C0.0384866 1.13682 -0.0381143 1.54147 0.0178153 1.93877C0.0737449 2.33606 0.259085 2.70383 0.545143 2.98515L14.4141 15.6166C14.6835 15.8632 15.0356 16 15.4009 16C15.7662 16 16.1183 15.8632 16.3877 15.6166L30.342 2.98515C30.6314 2.7061 30.8198 2.33882 30.8778 1.94102C30.9357 1.54322 30.8598 1.13745 30.6621 0.78746C30.5581 0.587512 30.4094 0.414307 30.2274 0.281377C30.0454 0.148447 29.8352 0.059393 29.6131 0.0211741C29.391 -0.0170449 29.1631 -0.00339398 28.9472 0.061061Z" fill="#99ccda"/>
</svg>
