<svg
  xmlns="http://www.w3.org/2000/svg"
  width="36"
  height="32"
  viewBox="0 0 36 32"
>
  <title>Tiger Codes</title>
  <path
    d="M35.3067 20.7456C35.0288 16.4333 33.1795 12.3726 30.1088 9.33227C31.6201 8.40396 32.883 7.122 33.7885 5.59692C34.6941 4.07185 35.2151 2.34942 35.3067 0.578133C35.3166 0.388267 35.3216 0.196978 35.3216 0.00426667V0H35.3067C35.2064 0 35.1062 0 35.007 0C33.0274 0.0538447 31.0995 0.644072 29.4291 1.70771C27.7587 2.77136 26.4084 4.26851 25.5222 6.03947C25.1474 5.85316 24.768 5.68213 24.384 5.5264C20.0823 3.76721 15.2618 3.76721 10.96 5.5264C10.5732 5.68569 10.1931 5.85778 9.81975 6.04267C8.93407 4.27127 7.58408 2.77357 5.91383 1.70935C4.24359 0.645135 2.31575 0.0543388 0.336022 0C0.235755 0 0.135488 0 0.0352216 0H0.0202883C0.0202883 0.192711 0.025266 0.384 0.0352216 0.573867C0.128008 2.34386 0.649593 4.06479 1.55507 5.58847C2.46054 7.11215 3.72278 8.39293 5.23309 9.32053C2.16244 12.3609 0.313114 16.4216 0.0352216 20.7339C0.0117549 21.1157 2.16023e-05 21.4976 2.16023e-05 21.8795C-0.00439826 24.7001 0.669476 27.4805 1.96482 29.9861C1.86773 29.2501 1.96709 28.5015 2.25282 27.8163C2.53854 27.1311 3.00046 26.5337 3.59169 26.0847C4.18292 25.6357 4.88241 25.3511 5.61918 25.2598C6.35594 25.1685 7.10374 25.2737 7.78669 25.5648C6.43935 26.0107 5.26731 26.8709 4.43788 28.0225C3.60845 29.1742 3.16402 30.5584 3.16802 31.9776L3.18295 32C3.81865 31.1404 4.64873 30.4433 5.60535 29.9659C5.84731 29.8437 6.09669 29.7368 6.35202 29.6459C6.67014 29.5329 6.99642 29.4445 7.32802 29.3813C8.3287 29.1888 9.35997 29.2253 10.3446 29.488C11.4772 29.7899 12.5108 30.384 13.3419 31.2107L13.3643 31.232L13.3867 31.2544C13.811 31.6683 14.3674 31.9198 14.9585 31.9648C15.5495 32.0099 16.1376 31.8456 16.6198 31.5008C16.7337 31.4207 16.8408 31.3311 16.9398 31.2331C17.1745 30.9988 17.3606 30.7204 17.4874 30.414C17.6143 30.1076 17.6794 29.7791 17.679 29.4475C17.6785 29.7791 17.7436 30.1076 17.8705 30.414C17.9973 30.7204 18.1834 30.9988 18.4182 31.2331C18.5171 31.3311 18.6242 31.4207 18.7382 31.5008C19.2203 31.8456 19.8084 32.0099 20.3994 31.9648C20.9905 31.9198 21.5469 31.6683 21.9712 31.2544L21.9936 31.232L22.016 31.2107C22.7935 30.4388 23.7478 29.8687 24.796 29.5501C25.8442 29.2314 26.9544 29.1738 28.0299 29.3824C28.3615 29.4456 28.6878 29.534 29.0059 29.6469C29.2612 29.7379 29.5106 29.8448 29.7526 29.9669C30.7044 30.4458 31.53 31.1423 32.1622 32L32.1771 31.9776C32.1805 30.5581 31.7355 29.1737 30.9055 28.0221C30.0755 26.8705 28.903 26.0105 27.5552 25.5648C28.2382 25.273 28.9863 25.1672 29.7234 25.2581C30.4606 25.349 31.1605 25.6333 31.7522 26.0823C32.3438 26.5313 32.8061 27.1288 33.0921 27.8143C33.378 28.4998 33.4775 29.2487 33.3803 29.9851C34.6756 27.4794 35.3495 24.6991 35.3451 21.8784C35.3451 21.498 35.3323 21.1204 35.3067 20.7456ZM14.208 11.2811L14.383 11.1072L14.5216 10.9685C14.5456 10.9453 14.5717 10.9242 14.5995 10.9056C15.4551 10.1746 16.5435 9.77303 17.6688 9.77303C18.7942 9.77303 19.8825 10.1746 20.7382 10.9056C20.766 10.9242 20.792 10.9453 20.816 10.9685L20.9547 11.1072L21.1296 11.2811C21.2162 11.3721 21.2639 11.4934 21.2624 11.619C21.261 11.7447 21.2105 11.8648 21.1218 11.9538C21.0331 12.0428 20.9131 12.0936 20.7875 12.0955C20.6618 12.0973 20.5404 12.0501 20.4491 11.9637L20.2016 11.7152C19.51 11.0817 18.6062 10.7303 17.6683 10.7303C16.7304 10.7303 15.8265 11.0817 15.135 11.7152L14.8875 11.9637C14.7962 12.0501 14.6748 12.0973 14.5491 12.0955C14.4235 12.0936 14.3035 12.0428 14.2148 11.9538C14.1261 11.8648 14.0756 11.7447 14.0742 11.619C14.0727 11.4934 14.1214 11.3721 14.208 11.2811ZM17.6704 12.576C17.4346 12.5643 17.1989 12.602 16.9785 12.6866C16.7581 12.7713 16.5578 12.9011 16.3904 13.0677L16.1771 13.2715C16.0779 13.3643 15.9464 13.415 15.8105 13.4128C15.6746 13.4105 15.545 13.3555 15.4489 13.2594C15.3527 13.1633 15.2978 13.0336 15.2955 12.8978C15.2933 12.7619 15.3439 12.6304 15.4368 12.5312L15.6395 12.3232C15.6514 12.3099 15.6642 12.2974 15.6779 12.2859L15.7152 12.2507C15.7218 12.244 15.7294 12.2382 15.7376 12.2336C16.2746 11.7717 16.9594 11.5177 17.6678 11.5177C18.3761 11.5177 19.0609 11.7717 19.5979 12.2336C19.6061 12.2382 19.6137 12.244 19.6203 12.2507L19.6576 12.2859C19.6713 12.2974 19.6841 12.3099 19.696 12.3232L19.8987 12.5312C19.9916 12.6304 20.0422 12.7619 20.04 12.8978C20.0377 13.0336 19.9828 13.1633 19.8867 13.2594C19.7906 13.3555 19.6609 13.4105 19.525 13.4128C19.3891 13.415 19.2576 13.3643 19.1584 13.2715L18.9451 13.0677C18.7787 12.9019 18.5797 12.7724 18.3606 12.6876C18.1415 12.6028 17.9072 12.5644 17.6726 12.5749L17.6704 12.576ZM18.512 14.3499C18.512 14.5163 18.4627 14.679 18.3702 14.8174C18.2777 14.9558 18.1463 15.0637 17.9925 15.1274C17.8387 15.1911 17.6695 15.2078 17.5062 15.1753C17.343 15.1428 17.193 15.0627 17.0753 14.945C16.9576 14.8273 16.8775 14.6773 16.845 14.5141C16.8125 14.3508 16.8292 14.1816 16.8929 14.0278C16.9566 13.874 17.0645 13.7426 17.2029 13.6501C17.3413 13.5576 17.504 13.5083 17.6704 13.5083C17.781 13.508 17.8906 13.5295 17.9929 13.5716C18.0952 13.6137 18.1882 13.6756 18.2665 13.7536C18.3449 13.8317 18.4071 13.9244 18.4496 14.0266C18.4921 14.1287 18.514 14.2382 18.5142 14.3488L18.512 14.3499ZM11.2374 19.0176C10.8489 18.6303 10.5971 18.1271 10.5202 17.584C10.4432 17.0409 10.5452 16.4875 10.8107 16.0075L10.8523 15.9349L15.2256 18.4587L15.184 18.5312C14.9864 18.8594 14.7167 19.1384 14.3953 19.347C14.074 19.5556 13.7093 19.6883 13.3291 19.7352C12.9488 19.782 12.5629 19.7418 12.2005 19.6175C11.8381 19.4931 11.5088 19.288 11.2374 19.0176ZM21.0251 26.6976C20.3817 26.6971 19.7467 26.8445 19.1693 27.1284C18.5919 27.4123 18.0875 27.8251 17.695 28.3349C17.6864 28.3445 17.6779 28.3552 17.6715 28.3669L17.647 28.3349C17.1115 27.642 16.3734 27.1331 15.5353 26.879C14.6972 26.6249 13.8008 26.6383 12.9707 26.9173C13.1651 26.5677 13.4397 26.2692 13.7721 26.0466C14.1044 25.8239 14.4849 25.6834 14.8822 25.6366C15.2795 25.5898 15.6823 25.6381 16.0572 25.7775C16.4322 25.9169 16.7687 26.1434 17.039 26.4384L17.0614 26.4629C17.1399 26.5449 17.2342 26.61 17.3386 26.6546C17.443 26.6991 17.5553 26.7221 17.6688 26.7221C17.7823 26.7221 17.8946 26.6991 17.999 26.6546C18.1034 26.61 18.1977 26.5449 18.2763 26.4629C18.288 26.4511 18.299 26.4386 18.3094 26.4256C18.5802 26.1323 18.9168 25.9074 19.2914 25.7693C19.666 25.6313 20.0681 25.5841 20.4645 25.6315C20.8609 25.679 21.2404 25.8198 21.5719 26.0424C21.9033 26.265 22.1773 26.563 22.3712 26.912C21.938 26.7673 21.484 26.6942 21.0272 26.6955L21.0251 26.6976ZM24.1035 19.0176C23.8323 19.2883 23.503 19.4936 23.1406 19.6182C22.7782 19.7427 22.3922 19.7831 22.0119 19.7363C21.6316 19.6895 21.2669 19.5568 20.9455 19.3482C20.6241 19.1396 20.3544 18.8606 20.1568 18.5323C20.143 18.5077 20.128 18.4832 20.1152 18.4597L24.4886 15.936L24.5302 16.0085C24.7955 16.4882 24.8976 17.0411 24.8213 17.5838C24.7449 18.1266 24.4941 18.6298 24.1067 19.0176H24.1035Z"
    fill="#fdf4bf"
  />
</svg>
