<svg width="96" height="96" viewBox="0 0 96 96" fill="none" xmlns="http://www.w3.org/2000/svg">
  <path d="M48 1C74.52 1 96 22.6994 96 49.4904C95.9976 59.6503 92.841 69.5539 86.9748 77.8063C81.1092 86.0594 72.8286 92.2461 63.3 95.4956C60.9 95.9805 60 94.4652 60 93.1923C60 91.5558 60.06 86.343 60.06 79.8575C60.06 75.3115 58.56 72.4021 56.82 70.8867C67.5 69.6745 78.72 65.5528 78.72 46.9446C78.72 41.6107 76.86 37.3072 73.8 33.9128C74.28 32.7006 75.96 27.7303 73.32 21.0629C73.32 21.0629 69.3 19.7294 60.12 26.0332C56.28 24.9421 52.2 24.3966 48.12 24.3966C44.04 24.3966 39.96 24.9421 36.12 26.0332C26.94 19.79 22.92 21.0629 22.92 21.0629C20.28 27.7303 21.96 32.7006 22.44 33.9128C19.38 37.3072 17.52 41.6713 17.52 46.9446C17.52 65.4922 28.68 69.6745 39.36 70.8867C37.98 72.099 36.72 74.2205 36.3 77.3723C33.54 78.6452 26.64 80.706 22.32 73.3719C21.42 71.9172 18.72 68.341 14.94 68.4016C10.92 68.4622 13.32 70.7049 15 71.6141C17.04 72.7657 19.38 77.0693 19.92 78.4634C20.88 81.1909 24 86.4037 36.06 84.161C36.06 88.222 36.12 92.0407 36.12 93.1923C36.12 94.4652 35.22 95.9199 32.82 95.4956C23.2598 92.2807 14.9444 86.1067 9.05334 77.8487C3.16228 69.5914 -0.00528287 59.6692 6.61387e-06 49.4904C6.61387e-06 22.6994 21.48 1 48 1Z" fill="#fdf4bf"/>
</svg>
