<svg width="60" height="60" viewBox="0 0 60 60" fill="none" xmlns="http://www.w3.org/2000/svg">
  <path d="M30 0C46.575 0 60 13.5621 60 30.3065C59.9985 36.6564 58.0256 42.8462 54.3593 48.0039C50.6933 53.1621 45.5179 57.0288 39.5625 59.0597C38.0625 59.3628 37.5 58.4157 37.5 57.6202C37.5 56.5974 37.5375 53.3394 37.5375 49.2859C37.5375 46.4447 36.6 44.6263 35.5125 43.6792C42.1875 42.9216 49.2 40.3455 49.2 28.7154C49.2 25.3817 48.0375 22.692 46.125 20.5705C46.425 19.8129 47.475 16.7064 45.825 12.5393C45.825 12.5393 43.3125 11.7059 37.575 15.6457C35.175 14.9638 32.625 14.6229 30.075 14.6229C27.525 14.6229 24.975 14.9638 22.575 15.6457C16.8375 11.7437 14.325 12.5393 14.325 12.5393C12.675 16.7064 13.725 19.8129 14.025 20.5705C12.1125 22.692 10.95 25.4196 10.95 28.7154C10.95 40.3076 17.925 42.9216 24.6 43.6792C23.7375 44.4369 22.95 45.7628 22.6875 47.7327C20.9625 48.5282 16.65 49.8163 13.95 45.2324C13.3875 44.3233 11.7 42.0881 9.3375 42.126C6.825 42.1639 8.325 43.5656 9.375 44.1338C10.65 44.8536 12.1125 47.5433 12.45 48.4146C13.05 50.1193 15 53.3773 22.5375 51.9756C22.5375 54.5138 22.575 56.9004 22.575 57.6202C22.575 58.4157 22.0125 59.3249 20.5125 59.0597C14.5374 57.0504 9.34025 53.1917 5.65834 48.0304C1.97643 42.8696 -0.00330179 36.6682 4.13366e-06 30.3065C4.13366e-06 13.5621 13.425 0 30 0Z" fill="#fdf4bf"/>
</svg>
