<svg width="96" height="96" viewBox="0 0 96 96" fill="none" xmlns="http://www.w3.org/2000/svg">
  <path d="M81.7968 81.7956H67.5726V59.52C67.5726 54.2081 67.4778 47.3702 60.174 47.3702C52.7659 47.3702 51.6324 53.1576 51.6324 59.1333V81.7944H37.4081V35.9864H51.0634V42.2465H51.2545C52.6211 39.9099 54.5959 37.9877 56.9684 36.6847C59.341 35.3816 62.0226 34.7465 64.7274 34.8469C79.1442 34.8469 81.8022 44.3297 81.8022 56.6663L81.7968 81.7956ZM21.3586 29.7247C19.726 29.725 18.1299 29.2412 16.7723 28.3345C15.4147 27.4277 14.3565 26.1387 13.7315 24.6305C13.1065 23.1223 12.9427 21.4626 13.2609 19.8613C13.5791 18.2601 14.365 16.7891 15.5192 15.6345C16.6734 14.4799 18.1441 13.6934 19.7452 13.3747C21.3464 13.0559 23.0061 13.2191 24.5146 13.8436C26.023 14.468 27.3123 15.5258 28.2196 16.8831C29.1268 18.2404 29.6113 19.8362 29.6115 21.4688C29.6117 22.5528 29.3984 23.6262 28.9838 24.6277C28.5691 25.6293 27.9613 26.5394 27.1949 27.306C26.4286 28.0726 25.5187 28.6808 24.5173 29.0959C23.5159 29.5108 22.4425 29.7245 21.3586 29.7247ZM28.4706 81.7956H14.2316V35.9864H28.4706V81.7956ZM88.8882 0.00653802H7.08396C5.22724 -0.0144151 3.43813 0.702624 2.10982 2.0001C0.781506 3.29757 0.0226602 5.06932 0 6.92604V89.0694C0.0218846 90.927 0.780276 92.7 2.10854 93.9984C3.43681 95.2974 5.22632 96.0162 7.08396 95.9964H88.8882C90.7494 96.0198 92.544 95.3034 93.8772 94.0044C95.211 92.7054 95.9742 90.9306 96 89.0694V6.9201C95.9736 5.05971 95.2092 3.28595 93.876 1.98851C92.5422 0.691068 90.7482 -0.0179981 88.8882 0.00653802Z" fill="#fdf4bf"/>
</svg>
