<svg width="60" height="60" viewBox="0 0 60 60" fill="none" xmlns="http://www.w3.org/2000/svg">
  <path d="M51.123 51.1245H42.2329V37.2022C42.2329 33.8823 42.1736 29.6086 37.6087 29.6086C32.9787 29.6086 32.2703 33.2257 32.2703 36.9605V51.1237H23.3801V22.4937H31.9146V26.4063H32.0341C32.8882 24.9459 34.1224 23.7445 35.6052 22.9302C37.0881 22.1157 38.7641 21.7188 40.4546 21.7815C49.4651 21.7815 51.1264 27.7083 51.1264 35.4187L51.123 51.1245ZM13.3491 18.5802C12.3288 18.5803 11.3312 18.278 10.4827 17.7113C9.63419 17.1445 8.97281 16.3389 8.58219 15.3963C8.19156 14.4537 8.08919 13.4163 8.28806 12.4155C8.48694 11.4148 8.97813 10.4954 9.6995 9.77378C10.4209 9.05216 11.3401 8.56059 12.3407 8.36141C13.3415 8.16216 14.3788 8.26416 15.3216 8.65447C16.2644 9.04472 17.0702 9.70584 17.6373 10.5542C18.2043 11.4025 18.5071 12.3998 18.5072 13.4202C18.5073 14.0977 18.374 14.7686 18.1149 15.3945C17.8557 16.0205 17.4758 16.5893 16.9968 17.0685C16.5179 17.5476 15.9492 17.9277 15.3233 18.1872C14.6974 18.4465 14.0266 18.58 13.3491 18.5802ZM17.7941 51.1245H8.89475V22.4937H17.7941V51.1245ZM55.5551 0.00630551H4.42748C3.26703 -0.00679019 2.14883 0.441359 1.31864 1.25228C0.488441 2.0632 0.0141626 3.17054 0 4.33099V55.6706C0.0136779 56.8316 0.487673 57.9397 1.31784 58.7512C2.14801 59.5631 3.26645 60.0123 4.42748 60H55.5551C56.7184 60.0146 57.84 59.5668 58.6732 58.755C59.5069 57.9431 59.9839 56.8338 60 55.6706V4.32728C59.9835 3.16454 59.5057 2.05594 58.6725 1.24504C57.8389 0.434137 56.7176 -0.00902957 55.5551 0.00630551Z" fill="#fdf4bf"/>
</svg>
