<svg width="72" height="96" viewBox="0 0 72 96" fill="none" xmlns="http://www.w3.org/2000/svg">
  <path d="M12 0C5.38125 0 0 5.38125 0 12V84C0 90.6187 5.38125 96 12 96H60C66.6187 96 72 90.6187 72 84V30H48C44.6812 30 42 27.3188 42 24V0H12ZM48 0V24H72L48 0ZM21 48H51C52.65 48 54 49.35 54 51C54 52.65 52.65 54 51 54H21C19.35 54 18 52.65 18 51C18 49.35 19.35 48 21 48ZM21 60H51C52.65 60 54 61.35 54 63C54 64.65 52.65 66 51 66H21C19.35 66 18 64.65 18 63C18 61.35 19.35 60 21 60ZM21 72H51C52.65 72 54 73.35 54 75C54 76.65 52.65 78 51 78H21C19.35 78 18 76.65 18 75C18 73.35 19.35 72 21 72Z" fill="#fdf4bf"/>
</svg>
