<svg width="45" height="60" viewBox="0 0 45 60" fill="none" xmlns="http://www.w3.org/2000/svg">
  <path d="M7.5 0C3.36328 0 0 3.36328 0 7.5V52.5C0 56.6367 3.36328 60 7.5 60H37.5C41.6367 60 45 56.6367 45 52.5V18.75H30C27.9258 18.75 26.25 17.0742 26.25 15V0H7.5ZM30 0V15H45L30 0ZM13.125 30H31.875C32.9062 30 33.75 30.8438 33.75 31.875C33.75 32.9062 32.9062 33.75 31.875 33.75H13.125C12.0938 33.75 11.25 32.9062 11.25 31.875C11.25 30.8438 12.0938 30 13.125 30ZM13.125 37.5H31.875C32.9062 37.5 33.75 38.3438 33.75 39.375C33.75 40.4062 32.9062 41.25 31.875 41.25H13.125C12.0938 41.25 11.25 40.4062 11.25 39.375C11.25 38.3438 12.0938 37.5 13.125 37.5ZM13.125 45H31.875C32.9062 45 33.75 45.8438 33.75 46.875C33.75 47.9062 32.9062 48.75 31.875 48.75H13.125C12.0938 48.75 11.25 47.9062 11.25 46.875C11.25 45.8438 12.0938 45 13.125 45Z" fill="#fdf4bf"/>
</svg>
